<svg xmlns="http://www.w3.org/2000/svg" width="2000" height="611" viewBox="0 0 2000 611" version="1.1"><path d="M 994 6.407 L 994 11.905 987.750 12.202 L 981.500 12.500 981.500 19 L 981.500 25.500 987.801 25.799 L 994.101 26.098 993.801 31.276 L 993.500 36.453 989.344 37.158 C 984.145 38.041, 977.547 41.356, 974.876 44.428 C 973.635 45.855, 972.121 46.583, 971.002 46.290 C 967.478 45.369, 958.205 48.928, 953.482 53.015 C 950.950 55.207, 948.663 57, 948.399 57 C 948.136 57, 946.026 56.033, 943.710 54.850 C 932.433 49.091, 917.004 55.368, 913.060 67.318 L 911.908 70.808 907.204 68.161 C 897.272 62.573, 884.189 65.902, 878.051 75.580 C 876.515 78.003, 874.978 81.739, 874.635 83.883 C 873.910 88.413, 872.903 89.005, 867.481 88.085 C 856.071 86.148, 845.445 92.571, 841.979 103.500 C 840.729 107.443, 837.054 111.273, 828.737 117.303 L 824.871 120.106 822.837 117.520 C 817.512 110.750, 804.881 108.054, 796.444 111.886 C 791.701 114.041, 785.376 121.011, 784.486 125.066 L 783.864 127.897 779.682 125.707 C 774.026 122.745, 765.077 122.764, 759.376 125.751 C 752.960 129.113, 749.323 134.210, 747.539 142.341 C 747.058 144.536, 746.528 145.019, 745.208 144.466 C 731.305 138.636, 715.423 147.859, 714.211 162.465 L 713.752 168 708.126 168.022 C 704.863 168.035, 700.816 168.809, 698.491 169.865 C 687.710 174.763, 682.504 189.003, 687.715 199.343 C 689.382 202.650, 689.633 202.314, 684.361 203.827 C 678.530 205.499, 672.398 211.922, 670.483 218.362 C 668.659 224.500, 669.278 230.092, 672.392 235.592 L 674.605 239.500 670.439 243.580 C 660.776 253.044, 661.124 268.011, 671.206 276.533 C 673.618 278.572, 674.111 279.449, 673.045 279.810 C 669.535 281, 661.771 289.720, 658.741 295.875 C 655.836 301.777, 655.505 303.343, 655.544 310.991 C 655.582 318.397, 655.994 320.378, 658.669 326.011 C 669.119 348.017, 696.820 354.644, 714.869 339.457 L 718.005 336.818 722.753 340.744 C 728.089 345.157, 737.155 351.375, 744.989 355.994 L 750.232 359.085 762.866 353.598 C 811.995 332.265, 868.457 316.261, 922 308.493 C 973.232 301.061, 1025.432 300.932, 1075.500 308.114 C 1130.015 315.934, 1187.580 332.048, 1235.635 352.939 L 1249.770 359.084 1255.011 355.993 C 1262.845 351.375, 1271.911 345.157, 1277.247 340.744 L 1281.995 336.818 1285.131 339.457 C 1292.204 345.409, 1303.180 348.664, 1312.316 347.521 C 1319.284 346.649, 1328.558 342.048, 1333.777 336.874 C 1336.130 334.542, 1339.505 329.688, 1341.277 326.088 C 1344.145 320.263, 1344.500 318.601, 1344.500 311 C 1344.500 303.357, 1344.153 301.752, 1341.200 295.754 C 1338.929 291.142, 1336.087 287.423, 1332.095 283.838 L 1326.291 278.626 1329.189 276.187 C 1338.879 268.034, 1339.045 252.850, 1329.546 243.580 L 1325.365 239.500 1327.296 236.213 C 1333.643 225.410, 1329.834 211.556, 1318.865 205.542 C 1316.315 204.144, 1313.503 203, 1312.615 203 C 1310.610 203, 1310.610 202.656, 1312.606 198.795 C 1314.938 194.285, 1314.763 185.382, 1312.246 180.500 C 1307.993 172.251, 1300.948 168, 1291.532 168 L 1286 168 1286 163.968 C 1286 155.910, 1280.100 147.349, 1272.562 144.471 C 1268.205 142.806, 1258.392 142.749, 1254.883 144.366 C 1253.594 144.961, 1253.043 144.228, 1252.169 140.758 C 1248.491 126.152, 1233.373 119.178, 1220.084 125.957 L 1216.352 127.861 1215.087 124.364 C 1213.325 119.492, 1208.259 114.023, 1203.509 111.865 C 1195.028 108.012, 1183.205 110.403, 1177.560 117.111 L 1175.074 120.066 1171.235 117.283 C 1162.946 111.274, 1159.270 107.439, 1158.021 103.500 C 1154.598 92.707, 1143.453 85.868, 1133 88.148 C 1127.676 89.309, 1126.090 88.413, 1125.357 83.830 C 1123.044 69.368, 1105.623 60.992, 1092.796 68.174 L 1088.092 70.808 1086.940 67.318 C 1085.441 62.778, 1080.638 57.366, 1076.011 55.006 C 1069.210 51.536, 1063.180 51.904, 1052.835 56.422 C 1051.686 56.923, 1049.982 56.084, 1047.335 53.711 C 1041.967 48.899, 1037.583 46.879, 1031.878 46.591 C 1028.345 46.412, 1026.400 45.733, 1024.946 44.172 C 1022.322 41.356, 1016.379 38.349, 1011.703 37.472 L 1008 36.777 1008 31.436 L 1008 26.095 1014.250 25.798 L 1020.500 25.500 1020.500 19 L 1020.500 12.500 1014.301 12.204 L 1008.101 11.907 1007.801 6.704 L 1007.500 1.500 1000.750 1.204 L 994 0.909 994 6.407 M 967.073 56.741 C 952.317 59.442, 954.681 81, 969.733 81 C 975.872 81, 982 74.980, 982 68.951 C 982 61.666, 974.351 55.409, 967.073 56.741 M 1025.424 57.919 C 1017.220 61.597, 1015.729 71.544, 1022.451 77.750 C 1025.343 80.420, 1026.779 81, 1030.500 81 C 1034.221 81, 1035.657 80.420, 1038.549 77.750 C 1048.910 68.184, 1038.297 52.148, 1025.424 57.919 M 927.217 64.561 C 924.268 66.626, 922 71.164, 922 75 C 922 78.836, 924.268 83.374, 927.217 85.439 C 928.497 86.336, 931.521 87, 934.323 87 C 938.536 87, 939.663 86.537, 942.600 83.600 C 945.595 80.605, 946 79.580, 946 75 C 946 70.420, 945.595 69.395, 942.600 66.400 C 939.663 63.463, 938.536 63, 934.323 63 C 931.521 63, 928.497 63.664, 927.217 64.561 M 1058.084 65.583 C 1052.372 70.389, 1052.315 79.189, 1057.963 84.250 C 1060.459 86.487, 1061.980 87, 1066.116 87 C 1070.565 87, 1071.625 86.575, 1074.600 83.600 C 1077.595 80.605, 1078 79.580, 1078 75 C 1078 70.420, 1077.595 69.395, 1074.600 66.400 C 1071.636 63.436, 1070.556 63, 1066.177 63 C 1062.235 63, 1060.493 63.556, 1058.084 65.583 M 891.228 77.117 C 885.916 79.745, 883.450 85.242, 884.999 90.997 C 888.701 104.745, 909.012 102.039, 908.996 87.800 C 908.986 78.515, 899.694 72.929, 891.228 77.117 M 1100.256 75.986 C 1094.648 77.298, 1091 82.033, 1091 88 C 1091 95.137, 1096.289 100, 1104.050 100 C 1112.243 100, 1118.367 89.727, 1114.307 82.794 C 1110.980 77.113, 1105.918 74.660, 1100.256 75.986 M 995.111 99.560 C 987.108 106.294, 992.744 119.102, 1003.099 117.714 C 1007.965 117.061, 1010.534 114.941, 1012.059 110.320 C 1015.291 100.528, 1003.133 92.810, 995.111 99.560 M 857.190 99.353 C 849.502 103.619, 849.062 115.534, 856.414 120.352 C 859.321 122.256, 866.155 122.523, 869.274 120.853 C 877.029 116.703, 877.831 106.402, 870.857 100.533 C 867.469 97.682, 861.179 97.139, 857.190 99.353 M 1129.855 99.694 C 1127.013 101.458, 1124 106.804, 1124 110.084 C 1124 113.021, 1126.567 117.514, 1129.615 119.912 C 1132.856 122.461, 1140.490 122.746, 1143.783 120.439 C 1150.921 115.440, 1150.373 103.549, 1142.810 99.353 C 1139.588 97.565, 1133.007 97.738, 1129.855 99.694 M 965 100.939 C 919.585 111.583, 886.403 130.068, 867.443 155.287 C 857.094 169.053, 850.264 187.410, 849.288 204.084 L 848.727 213.668 852.242 215.841 C 857.606 219.156, 863.887 226.511, 866.744 232.822 C 868.820 237.409, 869.332 240.141, 869.407 247.036 C 869.491 254.723, 869.183 256.213, 866.309 262.012 C 864.554 265.553, 863.281 268.615, 863.481 268.815 C 863.681 269.015, 867.381 269.421, 871.703 269.717 C 878.756 270.201, 880.080 269.993, 884.614 267.696 C 887.877 266.042, 892.284 262.232, 897.058 256.936 C 905.640 247.416, 910.104 245, 919.115 245 C 927.113 245, 930.694 246.699, 938.859 254.368 C 942.963 258.222, 948.736 262.353, 953.069 264.535 C 960.567 268.311, 963.615 268.581, 972.909 266.296 C 975.202 265.732, 975.127 265.602, 971.362 263.602 C 965.335 260.400, 961.443 257.148, 958.216 252.616 C 948.882 239.511, 951.819 222.663, 965.115 213.031 C 967.375 211.395, 970.120 208.244, 971.215 206.029 C 973.069 202.283, 976.356 198.888, 980.444 196.500 C 982.008 195.585, 981.883 194.982, 978.986 189.500 C 976.393 184.592, 975.895 182.657, 976.250 178.865 C 976.831 172.660, 979.830 167.149, 984.627 163.471 L 988.577 160.441 985.581 158.471 C 981.028 155.475, 976.852 148.863, 976.273 143.731 C 975.613 137.874, 977.407 132.662, 981.731 127.876 L 985.220 124.014 981.985 120.330 C 977.249 114.936, 975.672 110.467, 976.313 104.257 C 976.951 98.075, 977.070 98.110, 965 100.939 M 1028.564 103.674 C 1029.445 109.183, 1027.624 114.911, 1023.437 119.803 L 1019.844 124 1023.437 128.197 C 1031.569 137.698, 1030.193 150.001, 1020.136 157.711 L 1015.947 160.921 1019.031 162.516 C 1022.809 164.470, 1027.626 171.824, 1028.494 176.965 C 1029.404 182.352, 1027.465 188.480, 1023.441 192.934 L 1019.989 196.754 1023.274 199.260 C 1025.080 200.638, 1027.445 203.505, 1028.529 205.633 C 1029.613 207.760, 1031.400 210.139, 1032.500 210.919 C 1033.600 211.700, 1036.466 214.351, 1038.869 216.811 C 1053.039 231.317, 1049.008 251.959, 1029.871 262.889 L 1024.803 265.783 1031.826 267.038 L 1038.850 268.293 1046.282 264.764 C 1051.200 262.428, 1056.085 258.998, 1060.724 254.622 C 1069.030 246.786, 1072.822 245, 1081.152 245 C 1089.054 245, 1094.468 247.535, 1099.949 253.800 C 1108.374 263.431, 1110.168 265.051, 1115.248 267.626 C 1120 270.034, 1121.135 270.209, 1128.372 269.651 C 1132.729 269.315, 1136.426 268.907, 1136.588 268.745 C 1136.750 268.583, 1135.467 265.594, 1133.736 262.103 C 1130.952 256.486, 1130.586 254.760, 1130.562 247.127 C 1130.539 239.863, 1130.952 237.604, 1133.178 232.825 C 1136.134 226.477, 1142.448 219.123, 1147.758 215.841 L 1151.273 213.668 1150.712 204.084 C 1148.644 168.759, 1125.760 138.344, 1086.500 118.745 C 1071.371 111.192, 1045.378 102.379, 1032.565 100.458 L 1027.939 99.764 1028.564 103.674 M 799.763 121.565 C 796.194 123.501, 794 127.875, 794 133.050 C 794 136.417, 794.627 137.827, 797.321 140.521 C 803.374 146.574, 811.011 145.901, 816.265 138.852 C 818.464 135.901, 818.834 129.427, 817 125.999 C 814.190 120.749, 805.423 118.494, 799.763 121.565 M 1186.898 122.287 C 1175.636 129.865, 1184.586 148.262, 1197.467 144.011 C 1207.404 140.731, 1209.156 127.697, 1200.433 121.946 C 1196.475 119.338, 1191.079 119.473, 1186.898 122.287 M 835.788 125.150 C 832.040 126.520, 829 131.813, 829 136.968 C 829 140.433, 829.606 141.806, 832.341 144.541 C 836.581 148.781, 840.208 149.713, 845.436 147.905 C 848.628 146.802, 849.973 145.563, 851.702 142.135 C 857.229 131.180, 847.550 120.849, 835.788 125.150 M 1152.314 125.950 C 1148.222 128.445, 1146.674 131.415, 1146.753 136.619 C 1146.925 148.025, 1159.986 152.958, 1167.750 144.549 C 1173.060 138.799, 1171.998 130.274, 1165.433 125.946 C 1161.682 123.474, 1156.373 123.475, 1152.314 125.950 M 997.321 131.613 C 993.407 133.543, 990.618 138.983, 991.494 142.974 C 992.305 146.665, 996.335 150.695, 1000.026 151.506 C 1004.121 152.405, 1009.495 149.584, 1011.423 145.522 C 1012.290 143.693, 1013 141.659, 1013 141 C 1013 138.007, 1009.576 133.027, 1006.522 131.577 C 1002.421 129.631, 1001.331 129.636, 997.321 131.613 M 765.415 134.421 C 758.938 137.242, 755.836 144.279, 758.383 150.375 C 761.054 156.767, 769.874 159.941, 775.810 156.647 C 784.375 151.894, 783.575 138.227, 774.510 134.440 C 770.341 132.698, 769.379 132.696, 765.415 134.421 M 1225.396 134.390 C 1216.426 138.408, 1215.392 150.664, 1223.567 156.054 C 1230.278 160.478, 1239.749 156.909, 1242.097 149.071 C 1244.873 139.805, 1234.218 130.439, 1225.396 134.390 M 729.763 154.565 C 722.465 158.525, 722.177 170.610, 729.268 175.256 C 736.244 179.827, 745.664 176.191, 748.125 167.978 C 749.555 163.205, 748.147 159.143, 743.794 155.480 C 740.359 152.589, 734.150 152.185, 729.763 154.565 M 817.756 154.755 C 814.762 156.611, 812 161.527, 812 165 C 812 168.640, 815.091 173.995, 818.085 175.544 C 824.428 178.824, 832.636 176.393, 835.484 170.393 C 837.418 166.317, 837.396 163.898, 835.385 159.682 C 832.390 153.401, 823.808 151.002, 817.756 154.755 M 1168.756 154.755 C 1165.762 156.611, 1163 161.527, 1163 165 C 1163 166.209, 1163.682 168.636, 1164.516 170.393 C 1168.651 179.106, 1182.275 179.262, 1186.365 170.643 C 1188.398 166.360, 1188.426 163.700, 1186.484 159.607 C 1183.568 153.463, 1174.738 151.046, 1168.756 154.755 M 1256.514 155.168 C 1251.363 159.219, 1249.819 167.397, 1253.321 172.075 C 1257.078 177.094, 1265.443 178.721, 1270.489 175.415 C 1277.917 170.549, 1277.652 158.457, 1270.033 154.517 C 1265.745 152.300, 1259.796 152.586, 1256.514 155.168 M 913.500 163.685 C 907.428 164.464, 896.286 167.117, 888.500 169.637 C 879.184 172.652, 861.893 180.559, 860.807 182.301 C 859.427 184.514, 856 200.702, 856 205.006 C 856 208.957, 856.456 209.683, 862.304 215.042 C 873.363 225.175, 878.748 240.438, 876.069 254.056 C 875.404 257.437, 874.591 260.903, 874.262 261.759 C 873.763 263.060, 874.290 263.215, 877.470 262.699 C 882.057 261.954, 888.633 257.594, 890.489 254.066 C 892.523 250.202, 899.929 243.498, 905 240.932 C 908.212 239.306, 911.832 238.527, 917.648 238.207 C 924.892 237.810, 926.440 238.055, 931.603 240.419 C 934.936 241.944, 940.056 245.618, 943.619 249.039 C 947.033 252.317, 950.100 255, 950.434 255 C 950.768 255, 950.195 253.313, 949.162 251.250 C 946.510 245.955, 945.799 242.435, 945.897 235.068 C 946.015 226.097, 949.992 217.882, 958.210 209.634 C 961.669 206.162, 966.189 200.974, 968.253 198.106 L 972.005 192.892 970.369 187.888 C 968.897 183.389, 968.814 176.733, 970.159 171.062 C 971.236 166.519, 931.616 161.360, 913.500 163.685 M 1054.500 163.974 C 1051.750 164.454, 1045.978 165.638, 1041.673 166.605 L 1033.845 168.362 1034.671 171.931 C 1036.109 178.153, 1035.494 186.194, 1033.183 191.367 L 1031.009 196.234 1034.130 201.050 C 1035.846 203.699, 1038.930 207.217, 1040.984 208.867 C 1045.760 212.705, 1051.462 221.287, 1052.979 226.921 C 1054.883 233.992, 1054.399 242.209, 1051.682 248.934 C 1048.832 255.991, 1049.842 255.907, 1057 248.493 C 1063.733 241.518, 1069.829 238.751, 1079.648 238.209 C 1086.905 237.809, 1088.436 238.053, 1093.648 240.436 C 1100.294 243.476, 1103.588 246.297, 1109.062 253.635 C 1111.417 256.792, 1114.576 259.585, 1117.262 260.885 C 1122.370 263.358, 1126.486 263.708, 1125.677 261.601 C 1123.525 255.994, 1122.793 247.477, 1123.891 240.829 C 1125.617 230.378, 1129.225 223.592, 1137.297 215.614 L 1144.264 208.728 1143.650 202.152 C 1143.312 198.535, 1142.072 192.330, 1140.895 188.364 L 1138.754 181.154 1132.602 178.125 C 1122.691 173.246, 1108.306 167.987, 1099.077 165.869 C 1089.378 163.643, 1062.847 162.515, 1054.500 163.974 M 798 165.239 C 773.743 175.944, 758.125 186.968, 746.404 201.657 C 730.186 221.981, 721.026 248.100, 721.006 274.076 C 721.001 280.969, 721.236 281.870, 723.620 284.076 C 733.624 293.334, 737.004 309.760, 731.638 323.045 C 729.304 328.823, 729.286 329.044, 731.186 328.441 C 748.533 322.935, 748.892 322.596, 749.500 311.102 C 749.700 307.341, 750.500 302.743, 751.280 300.882 C 754.733 292.640, 762.994 286.488, 772.029 285.428 C 778.898 284.622, 783.995 285.978, 790.947 290.462 C 793.942 292.394, 797.892 294.469, 799.724 295.074 C 802.814 296.094, 803.577 295.847, 810.277 291.670 C 814.250 289.193, 818.579 286.016, 819.898 284.611 L 822.296 282.056 817.898 280.152 C 808.002 275.868, 799.183 264.373, 796.948 252.845 C 795.562 245.692, 797.218 237.011, 801.416 229.430 L 804.660 223.572 801.422 219.330 C 793.189 208.545, 795.958 193.211, 807.344 186.539 L 811.732 183.967 807.976 180.211 C 804.379 176.614, 802.018 171.093, 802.006 166.250 C 801.999 163.747, 801.605 163.648, 798 165.239 M 1197.978 167.294 C 1197.947 171.770, 1194.856 178.102, 1191.200 181.178 L 1188.116 183.773 1192.954 186.780 C 1203.088 193.080, 1206.573 206.227, 1200.745 216.172 C 1199.299 218.640, 1197.441 221.219, 1196.617 221.903 C 1195.309 222.988, 1195.547 223.933, 1198.485 229.323 C 1202.299 236.321, 1204.281 245.303, 1203.352 251.383 C 1201.626 262.687, 1192.964 274.914, 1183.348 279.618 L 1177.912 282.278 1180.206 284.722 C 1181.468 286.066, 1185.750 289.193, 1189.723 291.670 C 1196.423 295.847, 1197.186 296.094, 1200.276 295.074 C 1202.108 294.469, 1206.058 292.396, 1209.053 290.465 C 1217.877 284.780, 1224.738 283.669, 1233.205 286.554 C 1243.617 290.102, 1249.859 298.911, 1250.548 311.027 C 1251.149 321.613, 1252.078 322.894, 1261.500 326.133 C 1265.900 327.645, 1269.785 328.909, 1270.134 328.941 C 1270.482 328.974, 1269.649 326.231, 1268.282 322.847 C 1263.235 310.352, 1265.685 296.015, 1274.554 286.151 L 1279 281.206 1278.996 273.353 C 1278.986 253.493, 1272.554 230.751, 1262.063 213.483 C 1254.506 201.044, 1241.922 188.010, 1229.205 179.450 C 1223.059 175.313, 1208.264 167.710, 1202.190 165.567 L 1198 164.089 1197.978 167.294 M 996.353 170.926 C 992.782 173.104, 990.565 178.418, 991.565 182.402 C 992.575 186.428, 997.481 190, 1002 190 C 1006.666 190, 1011.554 186.305, 1012.483 182.077 C 1013.372 178.028, 1010.780 172.455, 1007.128 170.566 C 1003.126 168.497, 1000.176 168.595, 996.353 170.926 M 701.314 179.950 C 697.208 182.454, 696 184.819, 696 190.358 C 696 198.498, 703.481 204.087, 711.436 201.890 C 718.791 199.859, 722.207 191.169, 718.483 183.967 C 715.509 178.216, 707.306 176.296, 701.314 179.950 M 1286.500 178.945 C 1282.712 180.496, 1280.676 183.859, 1280.224 189.312 C 1279.842 193.924, 1280.124 194.994, 1282.457 197.767 C 1290.011 206.744, 1304 201.795, 1304 190.146 C 1304 187.505, 1303.316 184.469, 1302.439 183.217 C 1299.316 178.757, 1291.849 176.756, 1286.500 178.945 M 814.418 193.918 C 810.350 195.664, 806.997 200.844, 807.035 205.327 C 807.078 210.390, 808.677 213.489, 812.567 216.054 C 818.092 219.696, 826.419 217.627, 829.647 211.810 C 831.223 208.970, 831.368 202.884, 829.932 199.797 C 827.617 194.821, 819.491 191.741, 814.418 193.918 M 1175.449 194.498 C 1167.083 198.773, 1166.845 211.523, 1175.040 216.364 C 1180.312 219.479, 1187.436 217.770, 1191.484 212.420 C 1193.198 210.155, 1193.449 203.060, 1191.932 199.797 C 1189.358 194.263, 1181.102 191.609, 1175.449 194.498 M 771.500 213.365 C 763.250 216.253, 752.355 220.560, 747.289 222.935 L 738.078 227.254 735.624 233.877 C 730.532 247.622, 728.004 260.041, 728.001 271.317 C 728 277.024, 728.401 278.660, 730.467 281.368 C 735.521 287.994, 738.888 297.942, 740.835 312 L 741.597 317.500 742.326 310.030 C 743.653 296.424, 750.208 286.424, 760.961 281.598 C 772.264 276.526, 783.683 277.230, 793.122 283.582 C 800.686 288.672, 802.348 288.853, 807.819 285.182 C 808.808 284.518, 807.651 282.811, 803.185 278.345 C 796.182 271.342, 792.386 264.367, 790.404 254.860 C 788.669 246.539, 789.781 237.396, 793.528 229.179 L 795.955 223.858 793.982 221.179 C 792.897 219.705, 791.451 216.137, 790.768 213.250 C 789.934 209.721, 789.031 208.019, 788.013 208.057 C 787.181 208.088, 779.750 210.476, 771.500 213.365 M 1209.232 213.250 C 1208.549 216.137, 1207.103 219.705, 1206.018 221.179 L 1204.045 223.858 1206.496 229.210 C 1214.040 245.689, 1210.176 265.144, 1196.741 278.319 C 1191.165 283.788, 1190.919 284.224, 1192.654 285.562 C 1197.063 288.961, 1198.638 288.674, 1208.303 282.705 C 1218.307 276.527, 1232.160 276.843, 1242.544 283.485 C 1251.553 289.248, 1255.750 296.424, 1257.462 308.994 L 1258.622 317.500 1259.369 311 C 1260.836 298.241, 1264.171 288.580, 1269.614 281.317 C 1271.492 278.811, 1271.999 276.895, 1271.996 272.317 C 1271.988 260.645, 1268.170 243.112, 1263.078 231.364 C 1261.032 226.644, 1260.310 225.980, 1254.176 223.175 C 1241.693 217.466, 1215.404 208, 1212.033 208 C 1210.976 208, 1210.074 209.691, 1209.232 213.250 M 688.333 213.181 C 683.249 214.518, 680 219.209, 680 225.209 C 680 229.710, 680.391 230.633, 683.571 233.632 C 686.527 236.420, 687.912 237, 691.606 237 C 699.281 237, 704 232.076, 704 224.065 C 704 216.568, 696.161 211.122, 688.333 213.181 M 1305.014 213.098 C 1299.968 214.178, 1296 219.005, 1296 224.065 C 1296 232.075, 1300.903 237, 1308.879 237 C 1312.023 237, 1313.607 236.293, 1316.429 233.632 C 1319.620 230.623, 1320 229.719, 1320 225.148 C 1320 220.969, 1319.496 219.476, 1317.250 216.997 C 1313.993 213.402, 1309.813 212.071, 1305.014 213.098 M 992.240 218.110 C 981.854 223.251, 979.092 237.014, 986.645 245.990 C 993.392 254.008, 1004.650 254.758, 1012.662 247.724 C 1019.055 242.110, 1020.832 233.509, 1017.106 226.210 C 1014.767 221.627, 1012.496 219.523, 1007.746 217.538 C 1002.667 215.416, 997.281 215.615, 992.240 218.110 M 824.500 229.665 C 817.507 233.360, 814 239.150, 814 247 C 814 256.458, 819.930 263.855, 829.173 265.927 C 842.568 268.929, 855.197 256.325, 852.028 243.117 C 850.660 237.413, 846.407 231.896, 841.634 229.630 C 837.296 227.572, 828.427 227.590, 824.500 229.665 M 1158.500 229.519 C 1153.977 231.791, 1149.350 237.554, 1148.116 242.454 C 1144.592 256.448, 1156.913 268.928, 1171.224 265.859 C 1177.614 264.488, 1184.522 258.067, 1185.560 252.532 C 1188.170 238.617, 1180.136 227.992, 1167.016 228.006 C 1163.982 228.010, 1160.150 228.690, 1158.500 229.519 M 680.085 248.752 C 668.074 254.900, 673.745 273.505, 687.085 271.715 C 699.010 270.116, 702.145 256.058, 692.088 249.280 C 688.034 246.548, 684.677 246.401, 680.085 248.752 M 1309.418 247.969 C 1308.274 248.432, 1306.136 250.238, 1304.668 251.982 C 1298.671 259.110, 1303.218 270.415, 1312.588 271.672 C 1322.879 273.052, 1329.602 262.865, 1324.680 253.349 C 1322.100 248.359, 1314.808 245.789, 1309.418 247.969 M 683.500 293.569 C 678.282 296.278, 674.986 300.240, 673.392 305.722 C 666.996 327.727, 698.602 340.381, 709.009 319.982 C 712.532 313.076, 711.302 303.537, 706.129 297.644 C 701.503 292.373, 689.848 290.275, 683.500 293.569 M 1299.500 293.610 C 1292.443 297.468, 1289 303.171, 1289 311 C 1289 331.738, 1316.415 337.698, 1326.023 319.049 C 1327.949 315.310, 1327.589 306.758, 1325.322 302.390 C 1324.243 300.309, 1321.678 297.246, 1319.623 295.583 C 1316.431 292.999, 1314.913 292.516, 1309.194 292.264 C 1304.421 292.054, 1301.639 292.441, 1299.500 293.610 M 971.500 310.992 C 942.752 312.866, 912.255 316.801, 885.879 322.040 C 842.096 330.737, 795.004 346.008, 763.743 361.647 L 754.985 366.028 757.913 371.827 L 760.841 377.627 770.495 380.051 C 775.806 381.384, 780.588 382.746, 781.123 383.076 C 781.688 383.425, 780.412 387.562, 778.082 392.934 L 774.067 402.190 777.152 408.345 C 778.849 411.730, 780.336 414.615, 780.458 414.756 C 780.580 414.897, 786.067 412.330, 792.652 409.052 C 832.063 389.432, 888.539 376.326, 963.500 369.405 C 1004.858 365.586, 1051.193 368.672, 1109.500 379.127 C 1149.237 386.253, 1190.312 399.191, 1212.826 411.675 C 1216.305 413.604, 1219.253 415.029, 1219.377 414.841 C 1219.501 414.654, 1221.035 411.750, 1222.786 408.388 L 1225.970 402.276 1221.937 392.977 C 1219.416 387.164, 1218.291 383.438, 1218.936 383.039 C 1219.504 382.688, 1224.268 381.365, 1229.522 380.098 L 1239.075 377.795 1242.045 371.911 L 1245.016 366.026 1235.258 361.149 C 1194.255 340.655, 1133.702 323.424, 1075 315.545 C 1042.817 311.225, 998.096 309.258, 971.500 310.992 M 981.140 329.771 L 963.781 338.397 981.890 347.436 L 1000 356.475 1018.108 347.437 L 1036.216 338.399 1018.533 329.699 C 1008.807 324.915, 1000.321 321.033, 999.675 321.073 C 999.029 321.113, 990.688 325.027, 981.140 329.771 M 927.251 334.776 C 919.938 340.405, 925.415 353.167, 934.434 351.514 C 937.917 350.876, 940.880 348.413, 942.145 345.106 C 943.333 341.997, 941.547 336.496, 938.701 334.503 C 935.836 332.496, 930.033 332.634, 927.251 334.776 M 1060.495 335.414 C 1057.014 338.895, 1056.347 342.632, 1058.494 346.620 C 1063.289 355.523, 1076 352.037, 1076 341.817 C 1076 333.905, 1066.095 329.814, 1060.495 335.414 M 847.927 351.452 L 832.622 364.480 838.061 365.717 C 841.053 366.397, 849.911 368.335, 857.747 370.024 L 871.993 373.094 886.992 360.375 C 895.241 353.380, 901.741 347.408, 901.438 347.104 C 901.134 346.800, 892.413 344.723, 882.059 342.487 L 863.232 338.423 847.927 351.452 M 1117.817 342.471 C 1107.541 344.705, 1098.877 346.789, 1098.564 347.103 C 1098.083 347.583, 1104.885 353.637, 1124.631 370.303 L 1127.951 373.105 1142.226 370.030 C 1150.077 368.338, 1158.926 366.402, 1161.891 365.727 L 1167.283 364.500 1154.891 353.895 C 1148.076 348.062, 1141.150 342.192, 1139.500 340.850 L 1136.500 338.410 1117.817 342.471 M 797.328 367.394 C 795.125 369.289, 794.545 370.643, 794.545 373.894 C 794.545 379.729, 798.402 383.508, 804.201 383.356 C 816.202 383.041, 816.104 365, 804.101 365 C 801.334 365, 799.258 365.734, 797.328 367.394 M 1189.455 367.455 C 1186.581 370.328, 1186.117 376.295, 1188.503 379.701 C 1190.496 382.547, 1195.997 384.333, 1199.106 383.145 C 1205.844 380.569, 1207.824 371.826, 1202.672 367.394 C 1198.822 364.082, 1192.799 364.110, 1189.455 367.455 M 337 452.149 C 325.757 453.275, 315.454 458.629, 309.976 466.192 C 304.816 473.315, 302.768 480.340, 302.233 492.750 L 301.748 504 317.874 504 L 334 504 334.024 497.250 C 334.053 489.229, 335.524 482.184, 337.662 479.821 C 341.921 475.115, 350.991 477.471, 353.139 483.841 C 354.765 488.664, 354.605 503.461, 352.872 508.463 C 350.889 514.191, 346.275 517, 338.852 517 L 333 517 333 528.500 L 333 540 338.032 540 C 350.618 540, 354.384 545.490, 354.292 563.706 C 354.225 577.018, 352.678 580.943, 346.951 582.344 C 338.710 584.358, 335.111 579.546, 334.266 565.381 L 333.706 556 317.853 556 L 302 556 302 563.435 C 302 578.331, 306.601 592.601, 313.690 599.690 C 321.376 607.376, 331.796 610.494, 347.467 609.797 C 355.710 609.430, 358.655 608.848, 363.530 606.623 C 378.725 599.688, 386.050 585.576, 386.130 563.085 C 386.172 551.288, 385.464 547.040, 382.343 540.339 C 380.128 535.584, 374.220 529.058, 370.892 527.689 C 369.819 527.248, 369.959 526.835, 371.500 525.893 C 384.718 517.810, 390.126 494.949, 383.523 475.068 C 380.482 465.914, 369.534 456.092, 359.500 453.516 C 354.071 452.122, 343.612 451.487, 337 452.149 M 110.251 453.545 C 94.603 457.759, 85.582 468.181, 82.470 485.642 C 80.403 497.242, 80.422 564.805, 82.496 575.644 C 87.118 599.800, 103.206 610.874, 131.500 609.374 C 145.635 608.625, 155.392 604.736, 162.290 597.100 C 166.898 592, 169.265 587.282, 171.622 578.500 C 173.315 572.189, 173.500 567.464, 173.500 530.500 C 173.500 498.761, 173.185 488.258, 172.107 484 C 167.671 466.479, 159.358 457.672, 143.307 453.492 C 136.043 451.600, 117.363 451.630, 110.251 453.545 M 864.741 453.562 C 850.524 457.007, 842.061 465.681, 837.430 481.554 C 834.933 490.113, 834.088 560.329, 836.325 573.297 C 840.662 598.428, 854.364 609.369, 881.500 609.369 C 906.074 609.369, 918.850 601.036, 925.183 580.876 C 927.454 573.648, 927.500 572.650, 927.500 531 C 927.500 484.978, 927.277 482.604, 921.956 471.963 C 919.077 466.208, 912.451 459.319, 907.164 456.585 C 898.622 452.168, 876.887 450.619, 864.741 453.562 M 1192.184 453.507 C 1181.506 456.491, 1172.267 464.133, 1167.991 473.519 C 1163.150 484.146, 1162.595 489.904, 1162.546 530 C 1162.506 562.657, 1162.736 568.594, 1164.325 575.971 C 1168.721 596.374, 1178.291 606.176, 1196.575 609.005 C 1209.570 611.016, 1219.517 608.049, 1225.950 600.244 C 1229.139 596.376, 1229.348 596.515, 1230.467 603.250 L 1231.091 607 1242.545 607 L 1254 607 1254 567 L 1254 527 1231.500 527 L 1209 527 1209 537.500 L 1209 548 1216 548 L 1223 548 1223 557.951 C 1223 570.667, 1221.570 577.331, 1217.977 581.351 C 1215.510 584.113, 1214.530 584.500, 1210 584.500 C 1205.457 584.500, 1204.493 584.117, 1201.989 581.313 C 1200.216 579.329, 1198.906 576.499, 1198.517 573.813 C 1198.174 571.441, 1198.030 550.070, 1198.197 526.322 C 1198.492 484.249, 1198.554 483.072, 1200.602 480.330 C 1204.680 474.870, 1213.293 474.833, 1217.344 480.258 C 1219.069 482.569, 1219.458 484.888, 1219.819 495 L 1220.247 507 1237.271 507 L 1254.295 507 1253.688 495.750 C 1252.740 478.192, 1249.181 468.851, 1240.546 461.249 C 1233.053 454.654, 1226.714 452.746, 1211 452.356 C 1201.231 452.114, 1196.031 452.432, 1192.184 453.507 M 1 530.500 L 1 607 18.500 607 L 36 607 36 573 L 36 539 50 539 L 64 539 64 527 L 64 515 50 515 L 36 515 36 496 L 36 477 52 477 L 68 477 68 465.500 L 68 454 34.500 454 L 1 454 1 530.500 M 194 530.412 L 194 607 211 607 L 228 607 228 573 L 228 539 232.531 539 C 235.279 539, 237.218 539.492, 237.457 540.250 C 237.674 540.938, 241.388 556.125, 245.709 574 L 253.566 606.500 271.283 606.773 C 281.027 606.923, 289 606.714, 289 606.308 C 289 605.902, 284.419 589.388, 278.821 569.610 L 268.641 533.650 271.047 532.075 C 283.248 524.087, 287.788 512.382, 286.739 491.620 C 286.138 479.704, 284.107 473.566, 278.747 467.461 C 274.153 462.228, 268.355 458.733, 260.476 456.446 C 255.579 455.025, 249.036 454.631, 224.250 454.268 L 194 453.824 194 530.412 M 396 454.871 C 396 455.380, 398.717 470.804, 402.037 489.148 C 411.493 541.381, 419.640 586.595, 421.518 597.250 L 423.236 607 441.618 607 C 451.728 607, 460.002 606.663, 460.004 606.250 C 460.006 605.837, 461.563 596.950, 463.463 586.500 C 471.325 543.255, 484.030 473.956, 485.463 466.500 C 488.099 452.780, 489.443 454, 471.686 454 L 456.371 454 452.155 482.750 C 449.835 498.563, 447.059 517.350, 445.985 524.500 C 444.912 531.650, 443.439 541.550, 442.713 546.500 L 441.393 555.500 439.039 540.500 C 437.744 532.250, 434.142 509.525, 431.035 490 L 425.387 454.500 410.693 454.223 C 402.164 454.063, 396 454.334, 396 454.871 M 502 530.487 L 502 607 537 607 L 572 607 572 595.500 L 572 584 554.500 584 L 537 584 537 561.500 L 537 539 550 539 L 563 539 563 527 L 563 515 550 515 L 537 515 537 496.524 L 537 478.047 554.250 477.774 L 571.500 477.500 571.500 466 L 571.500 454.500 536.750 454.237 L 502 453.974 502 530.487 M 586 530.413 L 586 607 603.500 607 L 621 607 621 573 L 621 539 625.481 539 C 629.534 539, 630.028 539.263, 630.658 541.750 C 631.042 543.263, 634.776 558.450, 638.958 575.500 L 646.561 606.500 664.280 606.773 C 674.026 606.923, 682 606.724, 682 606.330 C 682 605.937, 677.406 589.431, 671.791 569.652 L 661.582 533.690 664.017 532.095 C 676.089 524.190, 680.877 511.644, 679.735 490.911 C 679.078 478.989, 675.912 471.017, 669.479 465.087 C 659.435 455.829, 654.463 454.809, 616.750 454.268 L 586 453.826 586 530.413 M 738 455.453 C 738 456.252, 738.431 457.940, 738.959 459.203 C 739.486 460.466, 745.786 479.849, 752.959 502.275 L 766 543.050 766 575.025 L 766 607 783 607 L 800 607 800 575.219 L 800 543.439 810.878 508.969 C 816.861 490.011, 823.002 470.450, 824.526 465.500 C 826.049 460.550, 827.506 455.926, 827.764 455.224 C 828.135 454.216, 824.916 454.006, 812.448 454.224 L 796.662 454.500 791.837 472.500 C 784.305 500.599, 784.300 500.614, 783.680 499 C 783.363 498.175, 781.538 492.325, 779.623 486 C 777.709 479.675, 774.741 469.887, 773.028 464.250 L 769.914 454 753.957 454 C 740.669 454, 738 454.243, 738 455.453 M 947 513.053 C 947 576.971, 947.256 580.556, 952.577 591.123 C 959.460 604.793, 978.405 611.801, 1001.036 609.049 C 1020.974 606.625, 1030.352 599.141, 1035.593 581.472 C 1037.184 576.111, 1037.403 569.285, 1037.739 514.750 L 1038.113 454 1021.120 454 L 1004.126 454 1003.813 514.250 C 1003.480 578.351, 1003.438 578.905, 998.650 582.877 C 996.625 584.556, 988.828 584.534, 986.118 582.841 C 981.517 579.969, 981.516 579.945, 981.221 515.250 L 980.941 454 963.971 454 L 947 454 947 513.053 M 1059 530.500 L 1059 607 1073.500 607 L 1088 607 1088.037 568.250 L 1088.075 529.500 1099.588 558.500 C 1105.921 574.450, 1112.794 591.775, 1114.863 597 L 1118.623 606.500 1130.311 606.782 L 1142 607.063 1142 530.532 L 1142 454 1128.013 454 L 1114.025 454 1113.763 489.656 L 1113.500 525.311 1100.576 494.906 C 1093.468 478.183, 1086.630 462.137, 1085.381 459.250 L 1083.110 454 1071.055 454 L 1059 454 1059 530.500 M 1344 454.443 C 1344 454.710, 1341.325 469.007, 1338.055 486.214 C 1334.785 503.421, 1328.469 536.850, 1324.019 560.500 C 1319.568 584.150, 1315.688 604.288, 1315.396 605.250 C 1314.905 606.868, 1316.119 607, 1331.433 607 C 1340.545 607, 1348 606.712, 1348 606.361 C 1348 605.831, 1350.028 593.293, 1352.546 578.250 L 1353.091 575 1364 575 L 1374.909 575 1375.451 578.250 C 1375.748 580.038, 1376.882 587.076, 1377.970 593.890 C 1379.057 600.705, 1380.121 606.454, 1380.333 606.667 C 1380.545 606.879, 1387.686 606.928, 1396.201 606.776 L 1411.683 606.500 1407.432 583.500 C 1396.897 526.513, 1393.733 509.485, 1390.986 495 C 1389.369 486.475, 1387.005 473.875, 1385.733 467 L 1383.421 454.500 1363.711 454.229 C 1352.870 454.080, 1344 454.176, 1344 454.443 M 1425 530.500 L 1425 607 1442.500 607 L 1460 607 1460 574.500 L 1460 542 1471.790 542 C 1495.566 542, 1508.338 535.189, 1514.274 519.346 C 1516.178 514.266, 1516.460 511.536, 1516.434 498.500 C 1516.407 485.551, 1516.102 482.693, 1514.204 477.601 C 1511.398 470.073, 1506.751 463.994, 1500.817 460.090 C 1492.494 454.614, 1487.853 454, 1454.790 454 L 1425 454 1425 530.500 M 1531 530.449 L 1531 607 1548.500 607 L 1566 607 1566 574.500 L 1566 542 1577.790 542 C 1604.264 542, 1617.803 533.416, 1621.915 514.025 C 1623.357 507.222, 1623.417 491.301, 1622.028 484.073 C 1619.555 471.207, 1611.836 461.096, 1601.221 456.815 C 1595.723 454.598, 1594.242 454.496, 1563.250 454.203 L 1531 453.897 1531 530.449 M 1651.505 455.250 C 1651.267 455.938, 1646.759 479.450, 1641.486 507.500 C 1636.213 535.550, 1629.897 568.986, 1627.450 581.803 C 1625.002 594.619, 1623 605.543, 1623 606.077 C 1623 606.678, 1629.197 606.945, 1639.228 606.775 L 1655.457 606.500 1658.001 591 L 1660.545 575.500 1671.511 575.500 L 1682.478 575.500 1684.914 591.250 L 1687.350 607 1703.175 607 C 1711.879 607, 1719 606.622, 1719 606.160 C 1719 605.698, 1716.955 594.335, 1714.455 580.910 C 1709.573 554.693, 1701.593 511.850, 1695.053 476.750 C 1692.824 464.787, 1691 454.775, 1691 454.500 C 1691 454.225, 1682.211 454, 1671.469 454 C 1656.741 454, 1651.831 454.307, 1651.505 455.250 M 1733 530.412 L 1733 607 1750 607 L 1767 607 1767 573 L 1767 539 1771.481 539 C 1775.532 539, 1776.030 539.264, 1776.667 541.750 C 1777.055 543.263, 1780.789 558.450, 1784.964 575.500 L 1792.556 606.500 1810.278 606.773 C 1820.025 606.923, 1828 606.765, 1828 606.421 C 1828 606.077, 1823.426 589.558, 1817.836 569.712 L 1807.673 533.629 1810.086 532.111 C 1815.291 528.836, 1820.833 522.063, 1822.986 516.344 C 1826.045 508.220, 1826.911 490.036, 1824.655 481.272 C 1821.204 467.859, 1813.900 460.862, 1798.500 456.215 C 1794.688 455.065, 1786.311 454.602, 1763.250 454.265 L 1733 453.824 1733 530.412 M 1845 530.500 L 1845 607 1880 607 L 1915 607 1915 595.500 L 1915 584 1897 584 L 1879 584 1879 561.500 L 1879 539 1892.500 539 L 1906 539 1906 527 L 1906 515 1892.500 515 L 1879 515 1879 496.500 L 1879 478 1896.500 478 L 1914 478 1914 466 L 1914 454 1879.500 454 L 1845 454 1845 530.500 M 1929 530.500 L 1929 607 1964 607 L 1999 607 1999 595.500 L 1999 584 1981.500 584 L 1964 584 1964 519 L 1964 454 1946.500 454 L 1929 454 1929 530.500 M 122.476 477.348 C 116.582 480.009, 116.535 480.382, 116.193 527.308 C 115.794 582.303, 116.212 584.500, 127.082 584.500 C 131.008 584.500, 132.465 583.990, 134.580 581.875 C 138.485 577.970, 139.229 567.764, 138.799 524 C 138.413 484.743, 138.089 481.805, 133.744 478.202 C 131.373 476.235, 125.865 475.818, 122.476 477.348 M 876.838 477.087 C 875.344 477.660, 873.371 479.728, 872.338 481.804 C 870.635 485.229, 870.500 488.840, 870.500 531 C 870.500 572.907, 870.642 576.760, 872.298 579.793 C 876.301 587.125, 886.907 586.733, 890.702 579.111 C 892.318 575.865, 892.534 571.654, 892.837 537.500 C 893.250 490.820, 892.809 483.927, 889.152 479.872 C 886.186 476.582, 881.134 475.440, 876.838 477.087 M 228 498.143 L 228 519.286 235.995 518.738 C 250.521 517.742, 254.500 513.283, 254.500 498 C 254.500 481.793, 250.164 477.067, 235.250 477.022 L 228 477 228 498.143 M 621 498.040 L 621 519.286 628.995 518.738 C 643.521 517.742, 647.500 513.283, 647.500 498 C 647.500 481.791, 644.049 477.853, 629.250 477.174 L 621 476.795 621 498.040 M 1767 498 L 1767 519 1771.951 519 C 1774.674 519, 1779.163 518.515, 1781.927 517.922 C 1790.725 516.035, 1794.614 508.677, 1793.777 495.500 C 1792.895 481.633, 1788.067 477.064, 1774.250 477.022 L 1767 477 1767 498 M 1460 497.959 L 1460 518.199 1468.921 517.849 C 1479.931 517.418, 1482.286 515.751, 1484.081 507.116 C 1485.483 500.372, 1484.647 488.152, 1482.500 484 C 1480.355 479.851, 1477.849 478.832, 1468.340 478.238 L 1460 477.718 1460 497.959 M 1566 498 L 1566 518 1573.351 518 C 1588.193 518, 1590.500 515.286, 1590.500 497.823 C 1590.500 487.538, 1590.250 485.810, 1588.406 483.323 C 1585.694 479.666, 1581.119 478.126, 1572.750 478.056 L 1566 478 1566 498 M 1667.689 525.500 C 1665.635 540.350, 1663.965 552.837, 1663.977 553.250 C 1663.990 553.663, 1667.415 554, 1671.588 554 L 1679.176 554 1678.579 550.250 C 1678.250 548.188, 1676.630 536.375, 1674.978 524 C 1673.327 511.625, 1671.851 500.825, 1671.700 500 C 1671.549 499.175, 1669.744 510.650, 1667.689 525.500 M 1360.133 525.742 C 1358.345 539.359, 1356.653 551.288, 1356.373 552.250 C 1355.921 553.807, 1356.699 554, 1363.433 554 C 1369.965 554, 1371.003 553.761, 1371.021 552.250 C 1371.062 548.800, 1364.642 502.484, 1364.020 501.742 C 1363.671 501.326, 1361.921 512.126, 1360.133 525.742" stroke="none" fill="#ffd700" fill-rule="evenodd"/><path d="" stroke="none" fill="#fcdc04" fill-rule="evenodd"/><path d="M 138.453 530.500 C 138.453 550.850, 138.586 559.033, 138.749 548.685 C 138.912 538.336, 138.911 521.686, 138.748 511.685 C 138.585 501.683, 138.452 510.150, 138.453 530.500" stroke="none" fill="#fcd404" fill-rule="evenodd"/></svg>