<svg xmlns="http://www.w3.org/2000/svg" width="2000" height="611" viewBox="0 0 2000 611" version="1.1"><path d="M 994 6.452 L 994 11.905 987.750 12.202 L 981.500 12.500 981.500 19 L 981.500 25.500 987.801 25.799 L 994.101 26.098 993.801 31.276 L 993.500 36.453 989.344 37.158 C 984.381 38, 977.825 41.198, 975.129 44.091 C 973.779 45.541, 971.650 46.287, 968.175 46.527 C 962.664 46.908, 956.587 49.585, 953.511 52.986 C 949.937 56.938, 948.385 57.238, 943.764 54.869 C 932.481 49.085, 917.314 55.193, 912.943 67.282 L 911.708 70.696 907.104 68.105 C 900.582 64.435, 892.143 64.554, 885.566 68.409 C 880.188 71.560, 875.481 78.191, 874.500 84 C 873.743 88.482, 872.858 88.997, 867.481 88.085 C 856.071 86.148, 845.445 92.571, 841.979 103.500 C 840.730 107.439, 837.054 111.274, 828.765 117.283 L 824.926 120.066 822.440 117.111 C 816.780 110.385, 804.973 108.012, 796.444 111.886 C 791.694 114.044, 785.376 121.013, 784.482 125.081 L 783.857 127.927 780.261 126 C 767.189 118.994, 751.515 126.127, 747.831 140.758 C 746.968 144.183, 746.389 144.967, 745.117 144.431 C 731.333 138.624, 715.418 147.910, 714.211 162.465 L 713.752 168 708.344 168 C 699.054 168, 691.987 172.290, 687.754 180.500 C 685.198 185.458, 685.061 194.283, 687.468 198.937 C 688.391 200.724, 689.002 202.288, 688.824 202.413 C 688.646 202.537, 686.637 203.174, 684.361 203.827 C 678.420 205.531, 672.362 211.946, 670.436 218.573 C 668.618 224.824, 669.206 229.632, 672.535 235.737 L 674.845 239.974 671.926 242.052 C 670.321 243.196, 667.770 246.239, 666.257 248.815 C 661.171 257.480, 663.220 269.800, 670.811 276.187 L 673.709 278.626 667.905 283.838 C 663.913 287.423, 661.071 291.142, 658.800 295.754 C 655.845 301.758, 655.501 303.348, 655.511 310.979 C 655.520 318.413, 655.915 320.329, 658.605 326 C 666.042 341.675, 682.505 350.308, 698.617 346.983 C 705.311 345.601, 710.328 343.278, 714.869 339.457 L 718.005 336.818 722.753 340.744 C 728.089 345.157, 737.155 351.375, 744.989 355.994 L 750.232 359.085 762.866 353.598 C 814.054 331.371, 871.966 315.261, 928.500 307.523 C 973.915 301.307, 1026.085 301.307, 1071.500 307.523 C 1128.051 315.264, 1185.944 331.370, 1237.171 353.614 L 1249.842 359.117 1257.671 354.389 C 1266.302 349.177, 1270.148 346.487, 1277.247 340.693 L 1281.995 336.818 1285.131 339.457 C 1303.214 354.673, 1330.938 348.042, 1341.395 326 C 1344.085 320.329, 1344.480 318.413, 1344.489 310.979 C 1344.499 303.348, 1344.155 301.758, 1341.200 295.754 C 1338.929 291.142, 1336.087 287.423, 1332.095 283.838 L 1326.291 278.626 1329.189 276.187 C 1336.780 269.800, 1338.829 257.480, 1333.743 248.815 C 1332.230 246.239, 1329.679 243.196, 1328.074 242.052 L 1325.155 239.974 1327.465 235.737 C 1330.785 229.648, 1331.381 224.822, 1329.579 218.624 C 1327.364 211.004, 1318.665 203, 1312.599 203 C 1310.611 203, 1310.612 202.651, 1312.606 198.795 C 1314.938 194.285, 1314.763 185.382, 1312.246 180.500 C 1307.993 172.251, 1300.948 168, 1291.532 168 L 1286 168 1286 163.968 C 1286 156.015, 1280.214 147.503, 1272.789 144.532 C 1268.060 142.640, 1259.145 142.317, 1256.133 143.929 C 1253.318 145.436, 1253.355 145.466, 1252.155 140.702 C 1248.499 126.181, 1232.785 119.008, 1219.837 125.948 L 1216.338 127.823 1215.080 124.345 C 1213.325 119.490, 1208.253 114.020, 1203.509 111.865 C 1195.028 108.012, 1183.205 110.403, 1177.560 117.111 L 1175.074 120.066 1171.235 117.283 C 1162.946 111.274, 1159.270 107.439, 1158.021 103.500 C 1154.555 92.571, 1143.929 86.148, 1132.519 88.085 C 1127.123 89, 1126.258 88.485, 1125.483 83.897 C 1123.041 69.442, 1105.607 61.001, 1092.896 68.118 L 1088.292 70.696 1087.057 67.282 C 1082.686 55.193, 1067.519 49.085, 1056.236 54.869 C 1051.615 57.238, 1050.063 56.938, 1046.489 52.986 C 1043.413 49.585, 1037.336 46.908, 1031.825 46.527 C 1028.350 46.287, 1026.221 45.541, 1024.871 44.091 C 1022.315 41.349, 1016.331 38.340, 1011.703 37.472 L 1008 36.777 1008 31.436 L 1008 26.095 1014.250 25.798 L 1020.500 25.500 1020.500 19 L 1020.500 12.500 1014.250 12.202 L 1008 11.905 1008 6.452 L 1008 1 1001 1 L 994 1 994 6.452 M 967.073 56.803 C 961.612 57.664, 957 63.279, 957 69.067 C 957 72.569, 959.839 77.474, 962.920 79.294 C 969.215 83.012, 977.071 80.632, 980.520 73.961 C 985.021 65.258, 977.150 55.214, 967.073 56.803 M 1026.461 57.574 C 1017.277 60.732, 1015.241 71.493, 1022.605 77.958 C 1027.599 82.343, 1033.660 82.264, 1038.549 77.750 C 1048.505 68.558, 1039.284 53.166, 1026.461 57.574 M 927.217 64.561 C 924.268 66.626, 922 71.164, 922 75 C 922 78.836, 924.268 83.374, 927.217 85.439 C 928.497 86.336, 931.521 87, 934.323 87 C 938.536 87, 939.663 86.537, 942.600 83.600 C 945.595 80.605, 946 79.580, 946 75 C 946 70.420, 945.595 69.395, 942.600 66.400 C 939.663 63.463, 938.536 63, 934.323 63 C 931.521 63, 928.497 63.664, 927.217 64.561 M 1057.400 66.400 C 1054.405 69.395, 1054 70.420, 1054 75 C 1054 79.580, 1054.405 80.605, 1057.400 83.600 C 1060.337 86.537, 1061.464 87, 1065.677 87 C 1071.186 87, 1074.288 85.278, 1076.506 80.989 C 1079.369 75.453, 1077.677 67.989, 1072.783 64.561 C 1071.503 63.664, 1068.479 63, 1065.677 63 C 1061.464 63, 1060.337 63.463, 1057.400 66.400 M 893.643 76.112 C 887.149 77.867, 883.261 84.541, 884.990 90.964 C 888.663 104.603, 909 102.092, 909 88 C 909 84.594, 906.989 80.066, 904.594 78.078 C 902.333 76.202, 896.912 75.228, 893.643 76.112 M 1100.256 76.048 C 1094.687 77.244, 1091 82.005, 1091 88 C 1091 98.090, 1103.232 103.883, 1110.904 97.427 C 1120.854 89.055, 1113.012 73.309, 1100.256 76.048 M 995.770 98.966 C 991.983 101.945, 990.565 106.151, 991.941 110.320 C 993.454 114.907, 996.046 117.075, 1000.672 117.624 C 1005.686 118.219, 1009.076 116.350, 1011.330 111.748 C 1012.867 108.608, 1012.975 107.455, 1012.007 104.522 C 1009.696 97.520, 1001.273 94.638, 995.770 98.966 M 857.190 99.353 C 849.502 103.619, 849.062 115.534, 856.414 120.352 C 860.303 122.900, 867.255 122.498, 870.794 119.520 C 877.184 114.143, 877.233 105.898, 870.905 100.574 C 867.469 97.682, 861.205 97.125, 857.190 99.353 M 1128.459 101.341 C 1126.621 103.179, 1124.818 105.879, 1124.451 107.341 C 1123.452 111.318, 1124.732 114.932, 1128.459 118.659 C 1131.286 121.486, 1132.513 122, 1136.435 122 C 1139.057 122, 1142.163 121.284, 1143.586 120.352 C 1148.941 116.843, 1150.579 108.915, 1147.054 103.567 C 1144.466 99.642, 1141.383 98.078, 1136.150 98.035 C 1132.527 98.006, 1131.242 98.558, 1128.459 101.341 M 965 100.939 C 936.500 107.619, 914.302 116.668, 895.090 129.440 C 886.224 135.334, 873.486 147.249, 867.409 155.332 C 857.094 169.052, 850.263 187.431, 849.288 204.084 L 848.727 213.668 852.242 215.841 C 857.555 219.124, 863.868 226.480, 866.818 232.825 C 869.011 237.542, 869.460 239.940, 869.478 247.037 C 869.498 254.648, 869.154 256.272, 866.309 262.012 C 864.554 265.554, 863.250 268.583, 863.412 268.745 C 863.574 268.907, 867.271 269.315, 871.628 269.651 C 878.820 270.205, 880.016 270.025, 884.608 267.699 C 887.882 266.040, 892.282 262.233, 897.083 256.907 C 905.776 247.264, 909.811 245.053, 918.782 245.022 C 927.118 244.993, 930.386 246.525, 939.140 254.567 C 943.833 258.877, 949.154 262.590, 953.825 264.810 L 961.150 268.293 968.281 267.019 L 975.412 265.745 970.827 263.415 C 965.151 260.530, 957.888 253.388, 955.474 248.317 C 949.506 235.778, 953.069 222.402, 964.798 213.315 C 967.512 211.212, 970.251 208.072, 970.901 206.319 C 971.999 203.356, 976.780 198.342, 980.484 196.269 C 981.898 195.478, 981.716 194.667, 978.952 189.436 C 976.392 184.590, 975.896 182.649, 976.250 178.865 C 976.831 172.660, 979.830 167.149, 984.627 163.471 L 988.577 160.441 985.581 158.471 C 981.028 155.475, 976.852 148.863, 976.273 143.731 C 975.613 137.872, 977.407 132.662, 981.737 127.869 L 985.233 124 981.737 120.131 C 977.293 115.211, 975.592 110.094, 976.330 103.862 C 977.009 98.128, 977.003 98.126, 965 100.939 M 1028.583 103.792 C 1029.447 109.195, 1027.594 114.946, 1023.418 119.825 L 1019.807 124.044 1023.350 127.965 C 1031.507 136.995, 1030.194 149.998, 1020.364 157.537 L 1016.404 160.573 1020.056 163.173 C 1024.031 166.003, 1029.004 174.778, 1028.994 178.946 C 1028.984 183.799, 1026.854 189.155, 1023.428 192.948 L 1019.989 196.754 1023.274 199.260 C 1025.080 200.638, 1027.445 203.505, 1028.529 205.633 C 1029.613 207.760, 1031.400 210.139, 1032.500 210.919 C 1033.600 211.700, 1036.466 214.351, 1038.869 216.811 C 1053.039 231.317, 1049.008 251.959, 1029.871 262.889 L 1024.803 265.783 1031.826 267.038 L 1038.850 268.293 1046.282 264.764 C 1051.200 262.428, 1056.085 258.998, 1060.724 254.622 C 1069.030 246.786, 1072.822 245, 1081.152 245 C 1089.030 245, 1094.423 247.514, 1100.029 253.800 C 1108.802 263.634, 1110.631 265.286, 1115.471 267.739 C 1119.975 270.021, 1121.206 270.203, 1128.372 269.651 C 1132.729 269.315, 1136.426 268.907, 1136.588 268.745 C 1136.750 268.583, 1135.446 265.554, 1133.691 262.012 C 1130.846 256.272, 1130.502 254.648, 1130.522 247.037 C 1130.540 239.940, 1130.989 237.542, 1133.182 232.825 C 1136.132 226.480, 1142.445 219.124, 1147.758 215.841 L 1151.273 213.668 1150.712 204.084 C 1150.054 192.839, 1146.614 180.175, 1141.377 169.712 C 1125.823 138.640, 1091.288 115.196, 1043 102.927 C 1027.815 99.069, 1027.827 99.068, 1028.583 103.792 M 799.763 121.565 C 793.726 124.841, 792.043 134.521, 796.574 139.905 C 797.989 141.587, 800.870 143.480, 802.976 144.111 C 810.277 146.298, 818.291 139.998, 818.183 132.154 C 818.112 127.021, 816.698 124.396, 812.686 121.950 C 808.920 119.654, 803.579 119.495, 799.763 121.565 M 1187.314 121.950 C 1183.302 124.396, 1181.888 127.021, 1181.817 132.154 C 1181.749 137.117, 1184.252 140.816, 1189.412 143.379 C 1192.632 144.978, 1193.766 145.087, 1197.024 144.111 C 1207.317 141.027, 1209.348 127.823, 1200.433 121.946 C 1196.682 119.474, 1191.373 119.475, 1187.314 121.950 M 835.449 125.551 C 829.197 128.637, 826.894 138.053, 831.088 143.385 C 833.525 146.483, 837.990 149, 841.049 149 C 844.741 149, 850.020 145.861, 851.660 142.691 C 857.462 131.471, 846.640 120.028, 835.449 125.551 M 1152.893 125.497 C 1144.582 130.014, 1144.864 143.335, 1153.357 147.365 C 1157.622 149.389, 1160.272 149.428, 1163.961 147.520 C 1170.632 144.071, 1173.012 136.215, 1169.294 129.920 C 1166.174 124.638, 1158.353 122.529, 1152.893 125.497 M 997.321 131.613 C 993.407 133.543, 990.618 138.983, 991.494 142.974 C 992.305 146.665, 996.335 150.695, 1000.026 151.506 C 1004.121 152.405, 1009.495 149.584, 1011.423 145.522 C 1012.290 143.693, 1013 141.659, 1013 141 C 1013 138.007, 1009.576 133.027, 1006.522 131.577 C 1002.421 129.631, 1001.331 129.636, 997.321 131.613 M 765.415 134.421 C 758.938 137.242, 755.836 144.279, 758.383 150.375 C 762.226 159.572, 775.311 160.516, 780.364 151.960 C 783.939 145.909, 781.015 137.158, 774.510 134.440 C 770.341 132.698, 769.379 132.696, 765.415 134.421 M 1225.270 134.444 C 1218.937 137.273, 1216.124 146.016, 1219.636 151.960 C 1224.956 160.967, 1238.418 159.410, 1241.912 149.384 C 1243.194 145.704, 1243.149 144.980, 1241.412 141.481 C 1237.996 134.599, 1231.379 131.714, 1225.270 134.444 M 729.763 154.565 C 724.512 157.414, 722.471 165.143, 725.449 170.901 C 727.526 174.918, 731.261 177, 736.388 177 C 741.783 177, 746.286 173.694, 748.011 168.467 C 750.465 161.031, 744.537 152.965, 736.673 153.040 C 734.378 153.062, 731.268 153.748, 729.763 154.565 M 817.756 154.755 C 814.762 156.611, 812 161.527, 812 165 C 812 168.640, 815.091 173.995, 818.085 175.544 C 824.428 178.824, 832.636 176.393, 835.484 170.393 C 837.390 166.375, 837.400 163.674, 835.520 160.039 C 832.068 153.363, 823.912 150.937, 817.756 154.755 M 1167.451 156.250 C 1156.672 166.202, 1168.771 182.341, 1181.915 175.544 C 1184.909 173.995, 1188 168.640, 1188 165 C 1188 161.437, 1185.184 156.540, 1182.080 154.706 C 1177.260 151.859, 1171.554 152.462, 1167.451 156.250 M 1256.143 155.533 C 1247.210 163.050, 1252.063 177, 1263.612 177 C 1270.911 177, 1276 172.070, 1276 165 C 1276 154.947, 1263.769 149.116, 1256.143 155.533 M 910.585 164.107 C 903.090 165.200, 891.510 168.325, 882.500 171.687 C 873.841 174.918, 861.746 180.871, 860.780 182.377 C 859.454 184.443, 856 200.697, 856 204.867 C 856 208.633, 856.588 209.568, 862.835 215.744 C 870.768 223.585, 874.392 230.434, 876.109 240.829 C 877.218 247.546, 876.472 255.999, 874.262 261.759 C 873.763 263.060, 874.290 263.215, 877.470 262.699 C 881.719 262.009, 888.561 257.689, 890.172 254.678 C 892.371 250.569, 899.615 243.718, 904.460 241.165 C 908.890 238.831, 910.650 238.510, 919 238.510 C 927.372 238.510, 929.094 238.826, 933.500 241.174 C 936.250 242.639, 940.960 246.349, 943.966 249.419 C 946.972 252.489, 949.734 255, 950.104 255 C 950.474 255, 949.713 252.412, 948.412 249.250 C 946.660 244.989, 946.042 241.558, 946.025 236 C 945.994 225.980, 949.520 218.356, 958.229 209.615 C 961.678 206.153, 966.207 200.949, 968.294 198.051 L 972.088 192.781 970.418 187.754 C 968.914 183.225, 968.813 176.736, 970.159 171.062 C 970.584 169.270, 961.453 166.558, 948 164.479 C 937.745 162.895, 920.097 162.719, 910.585 164.107 M 1054.500 163.974 C 1051.750 164.454, 1045.978 165.638, 1041.673 166.605 L 1033.845 168.362 1034.671 171.931 C 1036.177 178.444, 1035.539 186.255, 1033.088 191.319 L 1030.785 196.076 1033.558 200.288 C 1035.083 202.605, 1038.893 206.977, 1042.024 210.004 C 1050.040 217.753, 1053.226 224.406, 1053.786 234.562 C 1054.168 241.486, 1053.878 243.499, 1051.732 248.812 C 1050.357 252.216, 1049.533 255, 1049.900 255 C 1050.268 255, 1053.028 252.489, 1056.034 249.419 C 1059.040 246.349, 1063.750 242.639, 1066.500 241.174 C 1070.906 238.826, 1072.628 238.510, 1081 238.510 C 1089.364 238.510, 1091.098 238.827, 1095.500 241.168 C 1100.537 243.847, 1105.374 248.420, 1110.283 255.148 C 1111.748 257.154, 1114.900 259.741, 1117.289 260.898 C 1122.374 263.359, 1126.484 263.704, 1125.677 261.601 C 1123.525 255.994, 1122.793 247.477, 1123.891 240.829 C 1125.608 230.434, 1129.232 223.585, 1137.165 215.744 C 1142.913 210.062, 1144 208.453, 1144 205.630 C 1144 201.517, 1142.566 193.755, 1140.481 186.584 C 1138.924 181.226, 1138.894 181.197, 1130.709 177.229 C 1110.754 167.555, 1096.561 164.057, 1075 163.501 C 1066.475 163.280, 1057.250 163.493, 1054.500 163.974 M 797.618 165.643 C 791.577 167.734, 776.619 175.510, 769.733 180.138 C 761.708 185.531, 745.513 201.784, 740.475 209.500 C 728.267 228.198, 721.023 252.140, 721.006 273.853 C 721 281.150, 721.034 281.244, 725.446 286.151 C 734.287 295.985, 736.748 310.394, 731.713 322.858 C 729.320 328.784, 729.296 329.041, 731.186 328.441 C 748.524 322.938, 748.790 322.687, 749.441 311.231 C 749.656 307.439, 750.477 302.798, 751.265 300.918 C 754.739 292.626, 763.323 286.232, 772.203 285.323 C 778.946 284.632, 784.098 286.044, 790.947 290.462 C 793.942 292.394, 797.892 294.469, 799.724 295.074 C 802.814 296.094, 803.577 295.847, 810.277 291.670 C 814.250 289.193, 818.532 286.066, 819.794 284.722 L 822.088 282.278 816.652 279.618 C 806.998 274.895, 799.024 263.908, 796.896 252.395 C 795.564 245.192, 797.119 237.449, 801.529 229.323 C 804.455 223.933, 804.691 222.988, 803.383 221.903 C 799.524 218.700, 796.749 211.942, 796.689 205.601 C 796.612 197.403, 800.072 191.116, 807.046 186.780 L 811.884 183.773 808.919 181.279 C 805.119 178.081, 803.839 175.695, 802.547 169.399 L 801.500 164.298 797.618 165.643 M 1197.978 167.294 C 1197.947 171.770, 1194.856 178.102, 1191.200 181.178 L 1188.116 183.773 1192.954 186.780 C 1203.088 193.080, 1206.573 206.227, 1200.745 216.172 C 1199.299 218.640, 1197.441 221.219, 1196.617 221.903 C 1195.309 222.988, 1195.545 223.933, 1198.471 229.323 C 1202.881 237.449, 1204.436 245.192, 1203.104 252.395 C 1200.976 263.908, 1193.002 274.895, 1183.348 279.618 L 1177.912 282.278 1180.206 284.722 C 1181.468 286.066, 1185.750 289.193, 1189.723 291.670 C 1196.423 295.847, 1197.186 296.094, 1200.276 295.074 C 1202.108 294.469, 1206.058 292.396, 1209.053 290.465 C 1217.877 284.780, 1224.738 283.669, 1233.205 286.554 C 1243.617 290.102, 1249.859 298.911, 1250.548 311.027 C 1251.149 321.613, 1252.078 322.894, 1261.500 326.133 C 1265.900 327.645, 1269.785 328.909, 1270.134 328.941 C 1270.482 328.974, 1269.643 326.215, 1268.268 322.812 C 1263.218 310.309, 1265.665 296.038, 1274.554 286.151 C 1278.966 281.244, 1279 281.150, 1278.994 273.853 C 1278.977 252.140, 1271.733 228.198, 1259.525 209.500 C 1254.487 201.784, 1238.292 185.531, 1230.267 180.138 C 1223.311 175.463, 1208.602 167.829, 1202.190 165.567 L 1198 164.089 1197.978 167.294 M 996.353 170.926 C 992.782 173.104, 990.565 178.418, 991.565 182.402 C 992.575 186.428, 997.481 190, 1002 190 C 1006.666 190, 1011.554 186.305, 1012.483 182.077 C 1013.372 178.028, 1010.780 172.455, 1007.128 170.566 C 1003.126 168.497, 1000.176 168.595, 996.353 170.926 M 701.314 179.950 C 697.208 182.454, 696 184.819, 696 190.358 C 696 198.498, 703.481 204.087, 711.436 201.890 C 718.791 199.859, 722.207 191.169, 718.483 183.967 C 715.509 178.216, 707.306 176.296, 701.314 179.950 M 1285.763 179.565 C 1279.733 182.837, 1278.043 192.521, 1282.564 197.894 C 1290.018 206.752, 1304 201.698, 1304 190.146 C 1304 187.505, 1303.316 184.469, 1302.439 183.217 C 1299.006 178.315, 1291.212 176.609, 1285.763 179.565 M 814.418 193.918 C 813.274 194.409, 811.136 196.238, 809.668 197.982 C 804.785 203.786, 806.672 213.193, 813.357 216.365 C 817.640 218.398, 820.300 218.426, 824.393 216.484 C 828.521 214.525, 831 210.247, 831 205.081 C 831 197.177, 821.589 190.841, 814.418 193.918 M 1176.418 193.918 C 1175.274 194.409, 1173.136 196.238, 1171.668 197.982 C 1166.783 203.788, 1168.798 213.252, 1175.607 216.484 C 1179.700 218.426, 1182.360 218.398, 1186.643 216.365 C 1190.812 214.387, 1193 210.488, 1193 205.035 C 1193 197.177, 1183.565 190.851, 1176.418 193.918 M 771.482 213.335 C 763.221 216.208, 752.336 220.519, 747.292 222.916 C 738.401 227.141, 738.058 227.430, 736.064 232.387 C 731.268 244.309, 728.004 260.068, 728.001 271.317 C 728 277.024, 728.401 278.660, 730.467 281.368 C 734.734 286.962, 738.037 295.911, 739.884 306.880 L 741.668 317.477 742.345 309.988 C 743.165 300.900, 747.313 291.688, 752.725 286.937 C 764.231 276.834, 781.023 275.440, 793.122 283.582 C 800.708 288.687, 802.325 288.858, 807.885 285.141 C 808.962 284.421, 807.901 282.875, 803.128 278.205 C 789.659 265.025, 785.919 245.880, 793.545 229.145 L 795.986 223.789 793.954 220.935 C 792.836 219.365, 791.383 215.813, 790.724 213.040 C 789.926 209.680, 789.022 208.019, 788.013 208.057 C 787.181 208.088, 779.742 210.463, 771.482 213.335 M 1209.276 213.040 C 1208.617 215.813, 1207.164 219.365, 1206.046 220.935 L 1204.014 223.789 1206.480 229.176 C 1214.026 245.658, 1210.146 265.174, 1196.702 278.357 C 1192.057 282.913, 1191.037 284.421, 1192.115 285.141 C 1197.675 288.858, 1199.292 288.687, 1206.878 283.582 C 1216.100 277.376, 1227.914 276.525, 1238.373 281.313 C 1249.786 286.538, 1255.536 294.850, 1257.449 308.888 L 1258.622 317.500 1259.369 311 C 1260.836 298.241, 1264.171 288.580, 1269.614 281.317 C 1271.492 278.811, 1271.999 276.895, 1271.996 272.317 C 1271.988 260.645, 1268.170 243.112, 1263.078 231.364 C 1261.032 226.644, 1260.310 225.980, 1254.176 223.175 C 1241.693 217.466, 1215.404 208, 1212.033 208 C 1210.985 208, 1210.081 209.652, 1209.276 213.040 M 688.333 213.181 C 683.387 214.482, 680 219.227, 680 224.854 C 680 230.176, 681.770 233.313, 686.011 235.506 C 694.790 240.046, 704 234.189, 704 224.065 C 704 216.568, 696.161 211.122, 688.333 213.181 M 1305.014 213.098 C 1299.968 214.178, 1296 219.005, 1296 224.065 C 1296 234.189, 1305.210 240.046, 1313.989 235.506 C 1318.247 233.304, 1320 230.179, 1320 224.793 C 1320 216.679, 1313.173 211.352, 1305.014 213.098 M 992.425 218.019 C 976.561 225.872, 980.238 248.998, 997.885 252.359 C 1008.141 254.313, 1019.040 244.972, 1018.978 234.282 C 1018.953 229.948, 1016.182 223.299, 1013.355 220.788 C 1007.861 215.910, 999.043 214.743, 992.425 218.019 M 824.500 229.665 C 817.507 233.360, 814 239.150, 814 247 C 814 256.458, 819.930 263.855, 829.173 265.927 C 842.669 268.951, 855.313 256.073, 851.952 242.725 C 850.585 237.295, 846.284 231.837, 841.634 229.630 C 837.296 227.572, 828.427 227.590, 824.500 229.665 M 1158.500 229.519 C 1151.299 233.136, 1146.243 242.755, 1147.648 250.163 C 1149.734 261.151, 1160.249 268.297, 1170.840 265.924 C 1185.420 262.656, 1191.061 244.959, 1181.129 233.644 C 1176.527 228.400, 1164.935 226.287, 1158.500 229.519 M 680.299 248.624 C 675.971 250.758, 673.667 254.586, 673.667 259.640 C 673.667 271.156, 686.903 276.139, 694.749 267.576 C 700.088 261.751, 698.946 253.902, 692.088 249.280 C 688.136 246.617, 684.751 246.429, 680.299 248.624 M 1308.367 248.918 C 1303.867 251.662, 1302 254.834, 1302 259.737 C 1302 271.495, 1318.176 276.292, 1324.627 266.447 C 1328.309 260.826, 1325.703 251.510, 1319.643 248.635 C 1315.148 246.502, 1312.208 246.576, 1308.367 248.918 M 683.500 293.519 C 678.918 295.820, 674.344 301.575, 673.068 306.646 C 668.729 323.877, 689.501 337.246, 703.739 326.385 C 712.351 319.817, 713.497 306.037, 706.129 297.644 C 701.527 292.400, 689.935 290.287, 683.500 293.519 M 1299.500 293.665 C 1292.507 297.360, 1289 303.150, 1289 311 C 1289 332.989, 1320.250 337.733, 1326.499 316.693 C 1329.180 307.665, 1324.843 297.526, 1316.634 293.630 C 1312.296 291.572, 1303.427 291.590, 1299.500 293.665 M 970.500 311.041 C 895.110 315.897, 816.526 335.120, 763.793 361.604 L 754.985 366.028 757.913 371.827 L 760.841 377.627 770.495 380.051 C 775.806 381.384, 780.588 382.746, 781.123 383.076 C 781.688 383.425, 780.412 387.562, 778.082 392.934 L 774.067 402.190 777.152 408.345 C 778.849 411.730, 780.339 414.618, 780.464 414.762 C 780.589 414.906, 785.676 412.531, 791.770 409.483 C 835.427 387.646, 902.886 373.070, 983.734 368.004 C 999.936 366.988, 1019.759 367.671, 1044 370.079 C 1114.481 377.081, 1168.676 390.008, 1207.447 409.068 C 1214.017 412.298, 1219.476 414.841, 1219.578 414.720 C 1219.680 414.599, 1221.151 411.730, 1222.848 408.345 L 1225.933 402.190 1221.918 392.934 C 1219.408 387.147, 1218.291 383.438, 1218.936 383.039 C 1219.504 382.688, 1224.268 381.365, 1229.522 380.098 L 1239.075 377.795 1242.045 371.911 L 1245.015 366.028 1236.207 361.604 C 1194.784 340.800, 1134.203 323.491, 1075 315.545 C 1042.392 311.168, 998.134 309.260, 970.500 311.041 M 981.233 329.817 L 963.967 338.528 981.983 347.492 L 1000 356.456 1018.017 347.492 L 1036.033 338.528 1018.767 329.817 C 1009.270 325.026, 1000.825 321.106, 1000 321.106 C 999.175 321.106, 990.730 325.026, 981.233 329.817 M 926.646 335.452 C 923.096 338.742, 922.982 344.705, 926.394 348.672 C 930.826 353.824, 939.569 351.844, 942.145 345.106 C 943.333 341.997, 941.547 336.496, 938.701 334.503 C 935.349 332.155, 929.726 332.598, 926.646 335.452 M 1061.750 334.080 C 1058.998 335.683, 1056.794 340.787, 1057.488 343.947 C 1059.106 351.312, 1068.873 354.175, 1073.606 348.672 C 1079.024 342.373, 1075.112 332.963, 1067.104 333.030 C 1065.122 333.047, 1062.712 333.519, 1061.750 334.080 M 849.371 350.241 C 841.742 356.763, 834.925 362.668, 834.223 363.362 C 833.193 364.382, 836.715 365.444, 852.463 368.865 L 871.980 373.105 886.985 360.381 C 895.238 353.383, 901.769 347.435, 901.498 347.164 C 901.227 346.894, 892.509 344.807, 882.124 342.527 L 863.243 338.382 849.371 350.241 M 1117.756 342.518 C 1107.447 344.793, 1098.786 346.880, 1098.511 347.156 C 1098.235 347.431, 1104.766 353.385, 1113.022 360.387 L 1128.035 373.117 1147.268 368.936 C 1157.845 366.636, 1166.622 364.651, 1166.770 364.524 C 1167.008 364.321, 1147.587 347.451, 1139.500 340.836 L 1136.500 338.382 1117.756 342.518 M 797.328 367.394 C 795.142 369.275, 794.545 370.650, 794.545 373.814 C 794.545 380.688, 800.309 385.043, 806.641 382.953 C 810.937 381.536, 813 378.544, 813 373.732 C 813 365.747, 803.642 361.963, 797.328 367.394 M 1189.455 367.455 C 1186.581 370.328, 1186.117 376.295, 1188.503 379.701 C 1190.496 382.547, 1195.997 384.333, 1199.106 383.145 C 1205.844 380.569, 1207.824 371.826, 1202.672 367.394 C 1198.822 364.082, 1192.799 364.110, 1189.455 367.455 M 337 452.172 C 320.946 453.836, 310.365 461.641, 304.891 475.855 C 303.298 479.993, 302.588 484.503, 302.233 492.750 L 301.748 504 317.874 504 L 334 504 334 497.549 C 334 488.941, 335.671 481.608, 338.141 479.372 C 339.373 478.257, 341.687 477.545, 344.080 477.545 C 349.773 477.545, 352.775 480.914, 354.031 488.711 C 355.071 495.170, 353.924 507.406, 351.928 511.134 C 350 514.737, 344.930 516.992, 338.750 516.996 L 333 517 333 528.500 L 333 540 338.032 540 C 350.598 540, 354.319 545.430, 354.269 563.687 C 354.232 577.016, 352.692 580.940, 346.951 582.344 C 338.710 584.358, 335.111 579.546, 334.266 565.381 L 333.706 556 317.711 556 L 301.717 556 302.268 566.750 C 303.852 597.639, 317.742 611.009, 346.993 609.804 C 355.745 609.443, 358.517 608.911, 363.505 606.635 C 378.726 599.688, 386.050 585.590, 386.130 563.085 C 386.172 551.288, 385.464 547.040, 382.343 540.339 C 380.128 535.584, 374.220 529.058, 370.892 527.689 C 369.819 527.248, 369.959 526.835, 371.500 525.893 C 384.718 517.810, 390.126 494.949, 383.523 475.068 C 380.482 465.914, 369.534 456.092, 359.500 453.516 C 354.033 452.112, 343.591 451.489, 337 452.172 M 110.251 453.545 C 94.683 457.737, 85.842 467.871, 82.496 485.356 C 80.341 496.621, 80.341 564.379, 82.496 575.644 C 85.334 590.476, 91.906 599.744, 103.349 605.050 C 111.677 608.912, 124.095 610.507, 135.230 609.145 C 155.812 606.628, 166.879 597.306, 171.729 578.404 C 173.284 572.340, 173.500 566.449, 173.500 530 C 173.500 492.830, 173.309 487.828, 171.673 482.060 C 166.978 465.506, 157.681 456.376, 142.201 453.116 C 134.923 451.583, 116.623 451.829, 110.251 453.545 M 864.741 453.562 C 857.181 455.394, 853.675 457.289, 847.972 462.623 C 842.268 467.958, 838.328 476.231, 836.434 486.849 C 834.504 497.670, 834.513 563.376, 836.445 574.215 C 840.769 598.462, 854.748 609.369, 881.500 609.369 C 906.074 609.369, 918.850 601.036, 925.183 580.876 C 927.454 573.648, 927.500 572.650, 927.500 531 C 927.500 498.358, 927.182 487.224, 926.130 483 C 922.125 466.919, 912.658 457.016, 897.986 453.558 C 889.940 451.662, 872.575 451.664, 864.741 453.562 M 1192.024 453.548 C 1176.449 457.890, 1167.349 468.890, 1163.793 487.674 C 1162.882 492.482, 1162.500 505.438, 1162.500 531.500 C 1162.500 564.018, 1162.725 569.469, 1164.358 576.500 C 1169.066 596.776, 1178.400 606.193, 1196.575 609.005 C 1209.570 611.016, 1219.517 608.049, 1225.950 600.244 C 1229.139 596.376, 1229.348 596.515, 1230.467 603.250 L 1231.091 607 1242.545 607 L 1254 607 1254 567 L 1254 527 1231.500 527 L 1209 527 1209 537.500 L 1209 548 1216 548 L 1223 548 1223 557.951 C 1223 570.667, 1221.570 577.331, 1217.977 581.351 C 1215.510 584.113, 1214.530 584.500, 1210 584.500 C 1205.457 584.500, 1204.493 584.117, 1201.989 581.313 C 1200.220 579.334, 1198.903 576.493, 1198.512 573.813 C 1198.166 571.441, 1198.022 550.070, 1198.192 526.322 C 1198.492 484.252, 1198.554 483.072, 1200.602 480.330 C 1204.681 474.870, 1213.293 474.833, 1217.344 480.258 C 1219.069 482.569, 1219.458 484.888, 1219.819 495 L 1220.247 507 1237.123 507 L 1254 507 1253.992 499.750 C 1253.975 482.556, 1250.274 471.114, 1242.080 462.920 C 1233.849 454.689, 1228.188 452.764, 1211 452.348 C 1201.109 452.109, 1196.036 452.430, 1192.024 453.548 M 1 530.500 L 1 607 18.500 607 L 36 607 36 573 L 36 539 50 539 L 64 539 64 527 L 64 515 50 515 L 36 515 36 496 L 36 477 52 477 L 68 477 68 465.500 L 68 454 34.500 454 L 1 454 1 530.500 M 194 530.412 L 194 607 211 607 L 228 607 228 573 L 228 539 232.481 539 C 236.531 539, 237.030 539.264, 237.669 541.750 C 238.057 543.263, 241.790 558.450, 245.963 575.500 L 253.550 606.500 271.275 606.773 C 281.024 606.923, 289 606.711, 289 606.301 C 289 605.891, 284.424 589.374, 278.831 569.596 L 268.661 533.637 271.057 532.068 C 279.549 526.509, 284.205 519.227, 286.053 508.618 C 287.569 499.911, 286.761 483.047, 284.529 476.805 C 282.488 471.100, 276.268 463.818, 270.651 460.561 C 261.792 455.423, 256.797 454.745, 224.250 454.268 L 194 453.824 194 530.412 M 396 454.823 C 396 455.304, 402.075 489.384, 409.500 530.555 C 416.925 571.727, 423 605.770, 423 606.206 C 423 606.643, 431.272 607, 441.382 607 L 459.764 607 461.433 597.750 C 462.350 592.663, 468.618 558.350, 475.360 521.500 L 487.619 454.500 472.169 454.224 C 463.671 454.072, 456.606 454.072, 456.468 454.224 C 456.330 454.376, 452.906 477.175, 448.859 504.890 C 444.811 532.604, 441.355 554.429, 441.178 553.390 C 441.001 552.350, 437.397 529.675, 433.169 503 L 425.482 454.500 410.741 454.223 C 402.633 454.071, 396 454.341, 396 454.823 M 502 530.500 L 502 607 537 607 L 572 607 572 595.500 L 572 584 554.500 584 L 537 584 537 561.500 L 537 539 550 539 L 563 539 563 527 L 563 515 550 515 L 537 515 537 496.524 L 537 478.047 554.250 477.774 L 571.500 477.500 571.782 465.750 L 572.063 454 537.032 454 L 502 454 502 530.500 M 586 530.413 L 586 607 603.500 607 L 621 607 621 573 L 621 539 625.481 539 C 629.534 539, 630.028 539.262, 630.655 541.750 C 631.037 543.263, 634.767 558.450, 638.945 575.500 L 646.541 606.500 664.271 606.773 C 674.022 606.923, 682 606.739, 682 606.365 C 682 605.990, 677.415 589.479, 671.811 569.673 L 661.622 533.663 664.061 532.128 C 669.200 528.892, 674.841 522.047, 677.068 516.344 C 679.038 511.298, 679.360 508.589, 679.425 496.500 C 679.514 479.984, 678.130 474.702, 671.847 467.564 C 666.983 462.037, 661.552 458.742, 653.500 456.431 C 648.594 455.023, 641.893 454.628, 616.750 454.268 L 586 453.826 586 530.413 M 738 455.083 C 738 455.678, 744.300 475.746, 752 499.677 L 766 543.188 766 575.094 L 766 607 783 607 L 800 607 800.005 575.250 L 800.011 543.500 814.005 499.107 C 821.702 474.691, 828 454.542, 828 454.332 C 828 454.121, 820.955 454.073, 812.345 454.225 L 796.691 454.500 790.461 477.500 C 787.035 490.150, 783.978 499.825, 783.668 499 C 783.358 498.175, 781.538 492.325, 779.623 486 C 777.709 479.675, 774.741 469.887, 773.028 464.250 L 769.914 454 753.957 454 C 743.172 454, 738 454.351, 738 455.083 M 947 513.053 C 947 576.971, 947.256 580.556, 952.577 591.123 C 959.460 604.793, 978.405 611.801, 1001.036 609.049 C 1023.884 606.271, 1033.566 596.570, 1037.010 573 C 1037.533 569.425, 1037.969 541.188, 1037.980 510.250 L 1038 454 1021.063 454 L 1004.126 454 1003.813 514.250 C 1003.534 567.897, 1003.318 574.902, 1001.835 578.170 C 999.801 582.652, 997.466 584, 991.740 584 C 986.652 584, 983.560 581.441, 981.976 575.917 C 981.391 573.875, 981 548.803, 981 513.257 L 981 454 964 454 L 947 454 947 513.053 M 1059 530.469 L 1059 607 1073.488 607 L 1087.977 607 1088.238 568.627 L 1088.500 530.253 1103.535 568.377 L 1118.570 606.500 1130.285 606.782 L 1142 607.063 1142 530.532 L 1142 454 1128.013 454 L 1114.025 454 1113.763 489.669 L 1113.500 525.338 1098.446 489.919 L 1083.393 454.500 1071.196 454.219 L 1059 453.938 1059 530.469 M 1343.594 456.729 C 1343.278 458.253, 1336.922 491.900, 1329.469 531.500 C 1322.016 571.100, 1315.682 604.288, 1315.392 605.250 C 1314.905 606.867, 1316.120 607, 1331.433 607 C 1340.545 607, 1348.004 606.663, 1348.010 606.250 C 1348.015 605.837, 1349.136 598.975, 1350.500 591 C 1351.864 583.025, 1352.985 576.163, 1352.990 575.750 C 1352.996 575.337, 1357.950 575, 1364 575 C 1370.050 575, 1375 575.232, 1375 575.517 C 1375 576.388, 1378.982 601.323, 1379.589 604.250 L 1380.159 607 1396.054 607 L 1411.950 607 1411.364 604.070 C 1411.042 602.459, 1404.627 568.147, 1397.110 527.820 L 1383.441 454.500 1363.805 454.229 L 1344.168 453.958 1343.594 456.729 M 1425 530.500 L 1425 607 1442.500 607 L 1460 607 1460 574.611 L 1460 542.222 1474.250 541.778 C 1485.822 541.416, 1489.561 540.920, 1494.145 539.134 C 1511.373 532.423, 1517.798 519.919, 1516.743 495.161 C 1515.983 477.337, 1511.440 467.229, 1501 460.131 C 1492.965 454.669, 1487.920 454, 1454.790 454 L 1425 454 1425 530.500 M 1531 530.449 L 1531 607 1548.500 607 L 1566 607 1566 574.611 L 1566 542.222 1580.250 541.748 C 1596.734 541.199, 1604.084 539.188, 1610.887 533.365 C 1619.641 525.872, 1623 516.368, 1623.031 499 C 1623.073 476.326, 1616.084 462.809, 1601.221 456.815 C 1595.723 454.598, 1594.242 454.496, 1563.250 454.203 L 1531 453.897 1531 530.449 M 1651.499 455.250 C 1651.167 456.198, 1627.272 582.326, 1623.456 603.275 L 1622.768 607.051 1639.112 606.775 L 1655.457 606.500 1658.001 591 L 1660.545 575.500 1671.511 575.500 L 1682.478 575.500 1684.914 591.250 L 1687.350 607 1703.175 607 C 1713.237 607, 1719 606.630, 1719 605.983 C 1719 605.423, 1712.700 571.215, 1705 529.964 C 1697.300 488.714, 1691 454.747, 1691 454.482 C 1691 454.217, 1682.211 454, 1671.469 454 C 1656.744 454, 1651.829 454.308, 1651.499 455.250 M 1733 530.412 L 1733 607 1750 607 L 1767 607 1767 573 L 1767 539 1771.481 539 C 1775.533 539, 1776.029 539.263, 1776.663 541.750 C 1777.048 543.263, 1780.779 558.450, 1784.953 575.500 L 1792.543 606.500 1810.271 606.773 C 1820.022 606.923, 1828 606.727, 1828 606.336 C 1828 605.945, 1823.422 589.429, 1817.827 569.633 L 1807.655 533.641 1810.077 532.117 C 1815.183 528.904, 1820.846 522.036, 1823.082 516.344 C 1825.074 511.273, 1825.386 508.648, 1825.439 496.500 C 1825.511 479.985, 1824.123 474.693, 1817.847 467.564 C 1812.982 462.036, 1807.550 458.741, 1799.500 456.432 C 1794.611 455.030, 1787.899 454.629, 1763.250 454.268 L 1733 453.824 1733 530.412 M 1845 530.500 L 1845 607 1880 607 L 1915 607 1915 595.500 L 1915 584 1897 584 L 1879 584 1879 561.500 L 1879 539 1892.500 539 L 1906 539 1906 527 L 1906 515 1892.500 515 L 1879 515 1879 496.500 L 1879 478 1896.500 478 L 1914 478 1914 466 L 1914 454 1879.500 454 L 1845 454 1845 530.500 M 1929 530.500 L 1929 607 1964 607 L 1999 607 1999 595.500 L 1999 584 1981.500 584 L 1964 584 1964 519 L 1964 454 1946.500 454 L 1929 454 1929 530.500 M 122.476 477.348 C 116.582 480.009, 116.535 480.382, 116.193 527.308 C 115.794 582.303, 116.212 584.500, 127.082 584.500 C 131.073 584.500, 132.456 583.999, 134.727 581.728 L 137.500 578.956 137.805 533.228 C 138.120 486.113, 137.842 481.977, 134.133 478.620 C 131.559 476.291, 126.129 475.699, 122.476 477.348 M 877.500 476.899 C 870.468 479.941, 869.738 485.879, 870.174 536.492 C 870.485 572.631, 870.691 576.818, 872.307 579.793 C 876.290 587.126, 886.907 586.733, 890.702 579.111 C 892.326 575.850, 892.531 571.591, 892.821 535.203 C 893.171 491.169, 892.584 483.129, 888.733 479.278 C 886.167 476.712, 880.638 475.541, 877.500 476.899 M 228 498.143 L 228 519.286 235.995 518.738 C 250.521 517.742, 254.500 513.283, 254.500 498 C 254.500 481.793, 250.164 477.067, 235.250 477.022 L 228 477 228 498.143 M 621 498.143 L 621 519.286 628.995 518.738 C 643.521 517.742, 647.500 513.283, 647.500 498 C 647.500 481.793, 643.164 477.067, 628.250 477.022 L 621 477 621 498.143 M 1767 498.143 L 1767 519.286 1774.995 518.738 C 1789.521 517.742, 1793.500 513.283, 1793.500 498 C 1793.500 481.793, 1789.164 477.067, 1774.250 477.022 L 1767 477 1767 498.143 M 1460 497.959 L 1460 518.199 1468.921 517.849 C 1476.674 517.546, 1478.173 517.188, 1480.378 515.116 C 1483.727 511.968, 1485.432 503.671, 1484.645 494.342 C 1483.556 481.434, 1481.130 479.036, 1468.352 478.239 L 1460 477.718 1460 497.959 M 1566 498.099 L 1566 518.199 1575.083 517.849 C 1583.835 517.513, 1584.269 517.384, 1587.001 514.325 C 1590.376 510.547, 1591.579 503.448, 1590.674 492.650 C 1589.719 481.265, 1585.914 478.167, 1572.750 478.056 L 1566 478 1566 498.099 M 1668.135 522.500 C 1666.330 535.700, 1664.604 548.188, 1664.299 550.250 L 1663.744 554 1671.460 554 L 1679.176 554 1678.576 550.250 C 1678.246 548.188, 1676.622 536.375, 1674.967 524 C 1673.313 511.625, 1671.837 500.825, 1671.688 500 C 1671.539 499.175, 1669.940 509.300, 1668.135 522.500 M 1360.062 526.258 C 1358.217 540.141, 1356.500 552.063, 1356.247 552.750 C 1355.904 553.681, 1357.728 554, 1363.393 554 C 1369.963 554, 1371.003 553.761, 1371.021 552.250 C 1371.061 548.854, 1364.647 502.490, 1364.036 501.758 C 1363.695 501.350, 1361.907 512.375, 1360.062 526.258" stroke="none" fill="#000000" fill-rule="evenodd"/><path d="" stroke="none" fill="#080404" fill-rule="evenodd"/><path d="" stroke="none" fill="#040404" fill-rule="evenodd"/></svg>